<svg width="24" height="25" viewBox="0 0 24 25" fill="none" xmlns="http://www.w3.org/2000/svg">
<path d="M20.317 5.79376C18.7873 5.09188 17.147 4.57476 15.4319 4.27859C15.4007 4.27287 15.3695 4.28715 15.3534 4.31572C15.1424 4.69094 14.9087 5.18044 14.7451 5.56518C12.9004 5.28901 11.0652 5.28901 9.25832 5.56518C9.09465 5.17189 8.85248 4.69094 8.64057 4.31572C8.62449 4.28811 8.59328 4.27382 8.56205 4.27859C6.84791 4.57381 5.20756 5.09093 3.67693 5.79376C3.66368 5.79947 3.65233 5.809 3.64479 5.82137C0.533392 10.4697 -0.31895 15.0038 0.0991801 19.4817C0.101072 19.5036 0.11337 19.5246 0.130398 19.5379C2.18321 21.0455 4.17171 21.9607 6.12328 22.5673C6.15451 22.5768 6.18761 22.5654 6.20748 22.5397C6.66913 21.9093 7.08064 21.2445 7.43348 20.5455C7.4543 20.5045 7.43442 20.456 7.39186 20.4398C6.73913 20.1922 6.1176 19.8903 5.51973 19.5474C5.47244 19.5198 5.46865 19.4522 5.51216 19.4198C5.63797 19.3255 5.76382 19.2274 5.88396 19.1284C5.90569 19.1103 5.93598 19.1065 5.96153 19.1179C9.88928 20.9112 14.1415 20.9112 18.023 19.1179C18.0485 19.1055 18.0788 19.1094 18.1015 19.1274C18.2216 19.2265 18.3475 19.3255 18.4742 19.4198C18.5177 19.4522 18.5149 19.5198 18.4676 19.5474C17.8697 19.8969 17.2482 20.1922 16.5945 20.4388C16.552 20.455 16.533 20.5045 16.5538 20.5455C16.9143 21.2435 17.3258 21.9083 17.7789 22.5387C17.7978 22.5654 17.8319 22.5768 17.8631 22.5673C19.8241 21.9607 21.8126 21.0455 23.8654 19.5379C23.8834 19.5246 23.8948 19.5046 23.8967 19.4827C24.3971 14.3057 23.0585 9.80882 20.3482 5.82232C20.3416 5.809 20.3303 5.79947 20.317 5.79376ZM8.02002 16.7552C6.8375 16.7552 5.86313 15.6695 5.86313 14.3362C5.86313 13.003 6.8186 11.9173 8.02002 11.9173C9.23087 11.9173 10.1958 13.0125 10.1769 14.3362C10.1769 15.6695 9.22141 16.7552 8.02002 16.7552ZM15.9947 16.7552C14.8123 16.7552 13.8379 15.6695 13.8379 14.3362C13.8379 13.003 14.7933 11.9173 15.9947 11.9173C17.2056 11.9173 18.1705 13.0125 18.1516 14.3362C18.1516 15.6695 17.2056 16.7552 15.9947 16.7552Z" fill="white"/>
</svg>
