<svg width="24" height="25" viewBox="0 0 24 25" fill="none" xmlns="http://www.w3.org/2000/svg">
<g clip-path="url(#clip0_3802_1827)">
<path d="M0.373541 8.08227V24.1445H5.32296V8.08227H0.373541ZM2.89494 0.144531C1.30739 0.144531 0 1.45192 0 3.03947C0 4.62702 1.30739 5.93441 2.89494 5.93441C4.48249 5.93441 5.78988 4.62702 5.78988 3.03947C5.78988 1.45192 4.48249 0.144531 2.89494 0.144531ZM8.40467 8.08227H8.49805V23.9578H13.4475V16.02C13.4475 13.9655 13.821 11.9111 16.4358 11.9111C19.0506 11.9111 19.0506 14.3391 19.0506 16.2068V24.0511H24V15.2729C24 10.9772 23.0661 7.61535 18.0233 7.61535C15.5953 7.61535 13.9144 8.92274 13.2607 10.2301H13.1673V8.08227H8.40467Z" fill="white"/>
</g>
<defs>
<clipPath id="clip0_3802_1827">
<rect width="24" height="24" fill="white" transform="translate(0 0.144531)"/>
</clipPath>
</defs>
</svg>
