<svg width="96" height="24" viewBox="0 0 96 24" fill="none" xmlns="http://www.w3.org/2000/svg">
<g clip-path="url(#clip0_3696_37)">
<path fill-rule="evenodd" clip-rule="evenodd" d="M24.36 3.13809L20.9448 4.87809L4.4532 13.2781C4.39743 12.8528 4.36938 12.4243 4.3692 11.9953C4.37146 10.2837 4.82082 8.60244 5.67279 7.11797C6.52475 5.63351 7.74975 4.39737 9.22645 3.53201C10.7031 2.66666 12.3803 2.2021 14.0918 2.18437C15.8033 2.16663 17.4897 2.59633 18.984 3.43089L20.9388 2.43489L21.2304 2.28609C19.4397 0.986361 17.3245 0.207048 15.1185 0.0342874C12.9126 -0.138473 10.7018 0.302045 8.73062 1.30716C6.75939 2.31227 5.10444 3.84283 3.94869 5.72968C2.79293 7.61654 2.18137 9.78621 2.1816 11.9989C2.1816 12.3045 2.1932 12.6089 2.2164 12.9121C2.24889 13.3415 2.15367 13.7709 1.9427 14.1462C1.73174 14.5216 1.41446 14.8262 1.0308 15.0217L0 15.5473V17.9989L3.0348 16.4521L4.0176 15.9505L4.986 15.4573L22.3716 6.59889L24.3252 5.60409L28.3632 3.54609V1.09569L24.36 3.13809ZM28.3632 5.99999L5.9736 17.4L4.02 18.3972L0 20.4456V22.8948L3.9924 20.8608L7.4076 19.1208L23.916 10.7088C23.9718 11.1369 23.9999 11.5682 24 12C23.9989 13.7135 23.5497 15.397 22.6969 16.8833C21.8441 18.3696 20.6174 19.6069 19.1386 20.4726C17.6598 21.3382 15.9802 21.802 14.2668 21.8179C12.5533 21.8338 10.8654 21.4012 9.3708 20.5632L9.2508 20.6268L7.1316 21.7068C8.92191 23.0066 11.0367 23.7861 13.2423 23.9593C15.4479 24.1325 17.6584 23.6925 19.6296 22.6881C21.6009 21.6837 23.2561 20.1539 24.4123 18.2677C25.5686 16.3815 26.1809 14.2124 26.1816 12C26.1816 11.6916 26.1696 11.3832 26.1468 11.0784C26.1144 10.6492 26.2095 10.2199 26.4202 9.84461C26.6309 9.46928 26.9479 9.16458 27.3312 8.96879L28.3632 8.44319V5.99999ZM56.0062 14.202C56.0062 10.2216 58.6631 7.70156 62.0879 7.70156C65.9314 7.70156 68.1923 10.8936 67.9355 14.8776H58.2898C58.3594 17.58 60.3166 18.8844 62.1574 18.8844C64.0222 18.8844 65.0471 18.0456 65.5823 16.8108H67.7723C67.2131 18.9552 65.2103 20.7492 62.1574 20.7492C58.1962 20.7492 56.0062 17.9064 56.0062 14.202ZM62.0879 9.51836C60.2231 9.51836 58.4998 10.5396 58.3126 13.0596H65.6986C65.6291 11.2896 64.3475 9.51836 62.0879 9.51836ZM43.1095 10.7508L41.1583 10.308C39.5683 9.95763 38.3983 9.21363 38.3983 7.72203C38.3983 5.83443 40.6783 5.25243 41.9863 5.25243C43.6663 5.25243 45.6211 5.92803 46.1803 7.86123H48.4879C47.8111 4.62123 45.1279 3.24843 42.0799 3.24843C39.3535 3.24843 35.9755 4.62363 35.9755 7.86123C35.9755 10.6572 38.2819 11.9628 40.6123 12.4752L42.7183 12.918C44.8387 13.4076 46.3531 14.106 46.3531 15.9C46.3531 17.58 44.9323 18.7428 42.4159 18.7428C39.7831 18.7428 38.1991 17.5308 37.7563 15.2016H35.4211C35.8639 18.5616 38.3803 20.7468 42.3643 20.7468C45.7243 20.7468 48.7951 18.9756 48.7951 15.69C48.7951 12.2892 45.6967 11.31 43.1095 10.7508ZM51.2281 4.76249H53.3485V7.90769H55.7245V9.60929H53.3485V17.0421C53.3485 18.3465 53.4409 18.6729 54.6529 18.6729H55.7245V20.4429H54.1873C51.7873 20.4429 51.2281 19.9077 51.2281 17.2977V9.60929H49.2469V7.90769H51.2281V4.76249ZM95.3629 7.84047C93.7081 7.91007 92.4505 8.68047 91.8217 10.1001V7.91007H89.7469V20.4453H91.8673V13.8753C91.8673 11.0793 92.8465 10.0353 94.8037 10.0353C95.2015 10.0354 95.5987 10.0667 95.9917 10.1289V7.86327C95.7826 7.8451 95.5727 7.83749 95.3629 7.84047ZM87.7289 12.829L87.7061 15.7186C87.6821 17.8354 87.7757 19.2562 88.0313 20.4478H85.8881C85.7976 19.8774 85.743 19.3019 85.7249 18.7246C84.9569 20.0314 83.6753 20.7514 81.4385 20.7514C79.0853 20.7514 77.1281 19.4458 77.1281 17.1394C77.1281 14.1754 80.4833 13.2958 85.6085 12.7354V12.433C85.6085 10.1266 84.3509 9.38142 82.7657 9.38142C80.9957 9.38142 79.9937 10.3138 79.9001 11.8738H77.7101C77.8961 9.17142 80.3201 7.65702 82.7429 7.65702C86.2613 7.65702 87.7529 9.26383 87.7289 12.829ZM81.9041 19.0738C83.8853 19.0738 85.7717 18.1642 85.7717 15.2062V14.413C81.9269 14.7862 79.4813 15.3682 79.4813 17.0926C79.4813 18.2818 80.3897 19.0738 81.9041 19.0738ZM71.4813 3.54374H69.3609V20.4445H71.4813V3.54374ZM73.6008 3.54374H75.7212V20.4445H73.6008V3.54374Z" fill="#0F0F0F"/>
</g>
<defs>
<clipPath id="clip0_3696_37">
<rect width="96" height="24" fill="white"/>
</clipPath>
</defs>
</svg>
