<svg width="128" height="33" viewBox="0 0 128 33" fill="none" xmlns="http://www.w3.org/2000/svg">
<g clip-path="url(#clip0_3802_1528)">
<path fill-rule="evenodd" clip-rule="evenodd" d="M32.48 4.32886L27.9264 6.64886L5.9376 17.8489C5.86325 17.2818 5.82583 16.7104 5.8256 16.1385C5.82861 13.8564 6.42776 11.6146 7.56371 9.63536C8.69967 7.65608 10.333 6.0079 12.3019 4.85409C14.2709 3.70028 16.5071 3.08087 18.789 3.05722C21.071 3.03357 23.3196 3.6065 25.312 4.71926L27.9184 3.39126L28.3072 3.19286C25.9196 1.45988 23.0993 0.420799 20.158 0.190451C17.2168 -0.0398965 14.2691 0.547461 11.6408 1.88761C9.01252 3.22776 6.80592 5.26851 5.26492 7.78431C3.72391 10.3001 2.9085 13.193 2.9088 16.1433C2.9088 16.5507 2.92427 16.9566 2.9552 17.3609C2.99852 17.9334 2.87156 18.5059 2.59027 19.0064C2.30899 19.5069 1.88595 19.913 1.3744 20.1737L0 20.8745V24.1433L4.0464 22.0809L5.3568 21.4121L6.648 20.7545L29.8288 8.94326L32.4336 7.61686L37.8176 4.87286V1.60566L32.48 4.32886ZM37.8176 8.14473L7.9648 23.3447L5.36 24.6743L0 27.4055V30.6711L5.3232 27.9591L9.8768 25.6391L31.888 14.4231C31.9624 14.994 31.9998 15.569 32 16.1447C31.9986 18.4295 31.3996 20.6741 30.2626 22.6558C29.1255 24.6375 27.4899 26.2873 25.5181 27.4415C23.5463 28.5957 21.307 29.214 19.0223 29.2352C16.7377 29.2564 14.4873 28.6797 12.4944 27.5623L12.3344 27.6471L9.5088 29.0871C11.8959 30.8202 14.7156 31.8595 17.6564 32.0904C20.5972 32.3214 23.5445 31.7348 26.1729 30.3955C28.8012 29.0563 31.0081 27.0165 32.5498 24.5016C34.0914 21.9867 34.9078 19.0946 34.9088 16.1447C34.9088 15.7335 34.8928 15.3223 34.8624 14.9159C34.8191 14.3436 34.946 13.7713 35.2269 13.2709C35.5079 12.7704 35.9305 12.3642 36.4416 12.1031L37.8176 11.4023V8.14473ZM74.675 19.0807C74.675 13.7735 78.2174 10.4135 82.7838 10.4135C87.9086 10.4135 90.923 14.6695 90.5806 19.9815H77.7198C77.8126 23.5847 80.4222 25.3239 82.8766 25.3239C85.363 25.3239 86.7294 24.2055 87.443 22.5591H90.363C89.6174 25.4183 86.947 27.8103 82.8766 27.8103C77.595 27.8103 74.675 24.0199 74.675 19.0807ZM82.7838 12.8359C80.2974 12.8359 77.9998 14.1975 77.7502 17.5575H87.5982C87.5054 15.1975 85.7966 12.8359 82.7838 12.8359ZM57.4793 14.4792L54.8777 13.8888C52.7577 13.4216 51.1977 12.4296 51.1977 10.4408C51.1977 7.92398 54.2377 7.14798 55.9817 7.14798C58.2217 7.14798 60.8281 8.04878 61.5737 10.6264H64.6505C63.7481 6.30638 60.1705 4.47598 56.1065 4.47598C52.4713 4.47598 47.9673 6.30958 47.9673 10.6264C47.9673 14.3544 51.0425 16.0952 54.1497 16.7784L56.9577 17.3688C59.7849 18.0216 61.8041 18.9528 61.8041 21.3448C61.8041 23.5848 59.9097 25.1352 56.5545 25.1352C53.0441 25.1352 50.9321 23.5192 50.3417 20.4136H47.2281C47.8185 24.8936 51.1737 27.8072 56.4857 27.8072C60.9657 27.8072 65.0601 25.4456 65.0601 21.0648C65.0601 16.5304 60.9289 15.2248 57.4793 14.4792ZM68.3041 6.49473H71.1313V10.6883H74.2993V12.9571H71.1313V22.8675C71.1313 24.6067 71.2545 25.0419 72.8705 25.0419H74.2993V27.4019H72.2497C69.0497 27.4019 68.3041 26.6883 68.3041 23.2083V12.9571H65.6625V10.6883H68.3041V6.49473ZM127.15 10.5987C124.944 10.6915 123.267 11.7187 122.429 13.6115V10.6915H119.662V27.4051H122.49V18.6451C122.49 14.9171 123.795 13.5251 126.405 13.5251C126.935 13.5252 127.465 13.567 127.989 13.6499V10.6291C127.71 10.6049 127.43 10.5947 127.15 10.5987ZM116.972 17.2501L116.942 21.1029C116.91 23.9253 117.034 25.8197 117.375 27.4085H114.518C114.397 26.648 114.324 25.8806 114.3 25.1109C113.276 26.8533 111.567 27.8133 108.585 27.8133C105.447 27.8133 102.838 26.0725 102.838 22.9973C102.838 19.0453 107.311 17.8725 114.145 17.1253V16.7221C114.145 13.6469 112.468 12.6533 110.354 12.6533C107.994 12.6533 106.658 13.8965 106.534 15.9765H103.614C103.862 12.3733 107.094 10.3541 110.324 10.3541C115.015 10.3541 117.004 12.4965 116.972 17.2501ZM109.205 25.5765C111.847 25.5765 114.362 24.3637 114.362 20.4197V19.3621C109.236 19.8597 105.975 20.6357 105.975 22.9349C105.975 24.5205 107.186 25.5765 109.205 25.5765ZM95.3084 4.86973H92.4812V27.4041H95.3084V4.86973ZM98.1344 4.86973H100.962V27.4041H98.1344V4.86973Z" fill="white"/>
</g>
<defs>
<clipPath id="clip0_3802_1528">
<rect width="128" height="32" fill="white" transform="translate(0 0.144531)"/>
</clipPath>
</defs>
</svg>
