<svg width="24" height="25" viewBox="0 0 24 25" fill="none" xmlns="http://www.w3.org/2000/svg">
<path d="M24 4.70326C23.1166 5.09476 22.1682 5.35927 21.1728 5.47821C22.1887 4.86928 22.9704 3.90416 23.3372 2.75444C22.3863 3.31939 21.332 3.72885 20.2107 3.94938C19.3131 2.99293 18.0339 2.39453 16.6184 2.39453C13.8996 2.39453 11.6955 4.59919 11.6955 7.31738C11.6955 7.70331 11.7389 8.0787 11.8238 8.43985C7.73156 8.23419 4.10459 6.27421 1.67628 3.29585C1.25256 4.02247 1.00973 4.86866 1.00973 5.77059C1.00973 7.47844 1.70663 8.98559 3.02795 9.86832C2.22079 9.84231 1.24699 9.62116 0.62752 9.25196V9.31391C0.62752 11.6994 2.49521 13.6885 4.74697 14.1407C4.33317 14.2535 3.98379 14.3142 3.5353 14.3142C3.21813 14.3142 2.95238 14.2832 2.65194 14.2256C3.27946 16.1806 5.11927 17.6048 7.27254 17.6444C5.58821 18.9645 3.47583 19.7518 1.17017 19.7518C0.771856 19.7518 0.385928 19.7283 0 19.6831C2.17866 21.0799 4.76866 21.8945 7.54882 21.8945C16.6042 21.8945 21.5568 14.3935 21.5568 7.88853C21.5568 7.67481 21.5519 7.46234 21.5432 7.25172C22.5052 6.55793 23.3409 5.69006 24 4.70326Z" fill="white"/>
</svg>
